<?xml version="1.0" standalone="no"?>
<!DOCTYPE svg PUBLIC "-//W3C//DTD SVG 20010904//EN"
 "http://www.w3.org/TR/2001/REC-SVG-20010904/DTD/svg10.dtd">
<svg version="1.0" xmlns="http://www.w3.org/2000/svg"
 width="2013.000000pt" height="772.000000pt" viewBox="0 0 2013.000000 772.000000"
 preserveAspectRatio="xMidYMid meet">

<g transform="translate(0.000000,772.000000) scale(0.100000,-0.100000)"
fill="#000000" stroke="none">
<path d="M6585 7709 c-55 -5 -163 -20 -240 -34 -541 -99 -1039 -308 -1342
-564 -39 -34 -76 -61 -81 -61 -6 0 -70 23 -143 50 -800 303 -1512 528 -1869
591 -122 22 -455 17 -630 -10 -587 -88 -1145 -368 -1530 -767 -395 -410 -617
-917 -691 -1579 -20 -169 -17 -516 4 -660 89 -599 330 -1089 731 -1490 199
-198 395 -341 611 -445 293 -141 589 -234 945 -297 138 -25 178 -28 370 -28
237 1 326 13 595 79 450 112 897 324 1124 533 l64 59 331 -119 c839 -300 1440
-489 1701 -533 69 -12 158 -17 285 -17 427 0 831 102 1240 314 673 349 1112
928 1279 1684 57 256 90 662 71 867 -67 737 -366 1340 -885 1786 -205 176
-386 284 -685 407 -271 113 -669 209 -970 235 -128 11 -143 11 -285 -1z m400
-754 c829 -110 1456 -743 1581 -1595 25 -170 15 -469 -20 -638 -150 -709 -651
-1264 -1316 -1455 -160 -46 -271 -61 -465 -61 -250 0 -414 32 -648 126 -156
62 -428 158 -802 284 -187 63 -682 231 -1100 374 -418 143 -765 260 -771 260
-9 0 -266 -642 -276 -688 -2 -10 60 -37 194 -85 108 -40 199 -75 203 -79 10
-10 -121 -84 -219 -123 -276 -112 -736 -147 -1052 -81 -372 78 -691 256 -955
534 -128 134 -215 259 -302 433 -278 551 -275 1173 8 1736 151 299 359 537
630 718 347 232 763 339 1150 295 191 -22 264 -44 710 -209 121 -45 472 -167
780 -270 308 -104 805 -273 1104 -376 298 -102 548 -184 555 -182 13 6 279
684 272 696 -3 5 -97 41 -209 81 -112 39 -209 75 -217 80 -19 12 -4 28 58 59
152 75 458 152 702 175 95 8 307 4 405 -9z"/>
<path d="M2637 5281 c-263 -726 -477 -1323 -477 -1328 0 -8 700 -266 706 -260
1 1 217 596 479 1322 262 726 479 1323 481 1326 3 6 -686 259 -705 259 -4 0
-222 -594 -484 -1319z"/>
<path d="M6457 6467 c-2 -7 -230 -599 -506 -1316 -276 -716 -500 -1306 -497
-1309 14 -13 692 -269 698 -263 3 3 230 587 503 1296 274 710 501 1300 505
1311 8 21 -7 28 -283 134 -441 170 -415 161 -420 147z"/>
<path d="M4500 6091 c-363 -79 -652 -366 -752 -745 -30 -115 -36 -329 -13
-451 73 -389 340 -693 702 -801 108 -32 301 -43 419 -24 417 67 756 428 815
866 68 514 -236 997 -718 1140 -121 36 -328 43 -453 15z"/>
<path d="M9760 5025 l0 -2495 855 0 855 0 0 2495 0 2495 -855 0 -855 0 0
-2495z m1540 0 l0 -2325 -685 0 -685 0 0 2325 0 2325 685 0 685 0 0 -2325z"/>
<path d="M11570 5025 l0 -2495 855 0 855 0 0 799 0 799 548 5 c508 4 552 5
622 24 170 45 284 108 403 222 133 127 217 267 269 446 l23 80 3 887 c3 841 2
891 -16 980 -79 381 -365 670 -727 733 -76 13 -275 15 -1461 15 l-1374 0 0
-2495z m2853 2306 c209 -54 381 -197 477 -396 83 -172 80 -128 80 -1113 0
-835 -1 -872 -20 -948 -54 -215 -204 -404 -395 -498 -145 -72 -120 -70 -822
-74 l-633 -3 0 -799 0 -800 -685 0 -685 0 0 2325 0 2325 1303 0 c1259 0 1306
-1 1380 -19z"/>
<path d="M13140 5814 l0 -1167 138 5 c146 6 211 22 296 76 98 61 180 182 205
300 7 36 11 292 11 795 0 806 1 797 -56 909 -32 63 -114 151 -172 185 -81 48
-152 63 -293 63 l-129 0 0 -1166z m325 1012 c65 -29 133 -97 166 -163 l24 -48
3 -782 c2 -781 2 -781 -19 -839 -15 -40 -38 -74 -73 -109 -67 -67 -132 -97
-223 -103 l-73 -5 0 1043 0 1043 70 -6 c43 -4 92 -16 125 -31z"/>
<path d="M15262 5028 l3 -2493 760 -3 760 -2 -3 972 c-2 535 -1 970 2 967 4
-3 71 -426 151 -940 79 -514 147 -949 150 -967 l6 -32 621 2 622 3 136 930
135 930 3 -933 2 -932 758 2 757 3 3 2493 2 2492 -1017 -2 -1017 -3 -185 -947
c-102 -520 -188 -944 -191 -942 -2 3 -88 429 -190 947 l-186 942 -1042 3
-1042 2 2 -2492z m1948 2315 c0 -10 420 -2145 426 -2165 5 -15 18 -18 87 -18
l82 0 159 813 c87 446 184 939 214 1095 l56 282 863 0 863 0 0 -2325 0 -2325
-590 0 -590 0 -2 1443 -3 1442 -80 7 c-44 3 -81 5 -82 5 -1 -1 -94 -639 -207
-1417 -114 -778 -209 -1430 -212 -1447 l-6 -33 -478 0 -477 0 -6 33 c-2 17
-103 664 -222 1437 -120 773 -221 1409 -225 1413 -5 5 -42 6 -84 2 l-76 -7 0
-1439 0 -1439 -595 0 -595 0 0 2325 0 2325 890 0 c490 0 890 -3 890 -7z"/>
<path d="M40 1627 c0 -8 14 -17 30 -20 l30 -6 0 -216 0 -215 -30 -6 c-16 -4
-30 -13 -30 -20 0 -11 26 -14 130 -14 109 0 130 2 130 15 0 9 -9 15 -24 15
-44 0 -47 15 -44 231 l3 204 33 10 c63 18 27 30 -101 33 -104 2 -127 0 -127
-11z"/>
<path d="M317 1633 c-12 -11 -8 -23 8 -23 8 0 24 -9 35 -20 19 -19 20 -33 20
-209 0 -202 -4 -221 -51 -221 -10 0 -19 -7 -19 -15 0 -12 17 -15 90 -15 70 0
90 3 90 14 0 7 -13 16 -30 19 -39 8 -41 21 -38 199 l3 147 149 -190 c82 -104
155 -189 162 -189 11 0 14 42 14 223 0 122 4 227 8 233 4 6 17 14 30 18 12 4
22 14 22 22 0 12 -15 14 -82 12 -85 -3 -116 -20 -59 -33 39 -8 43 -23 39 -151
l-3 -102 -100 131 c-55 71 -106 136 -113 144 -14 14 -162 19 -175 6z"/>
<path d="M935 1628 c-65 -36 -94 -99 -75 -167 12 -46 51 -83 141 -133 83 -47
101 -67 97 -109 -4 -43 -39 -65 -91 -55 -51 10 -94 49 -114 107 -28 79 -43 64
-43 -46 0 -96 8 -113 38 -83 9 9 21 9 50 0 69 -21 152 -15 193 12 62 42 83
113 55 179 -18 44 -47 68 -141 120 -44 24 -86 55 -94 69 -13 23 -13 29 2 52
15 21 25 26 61 26 56 0 101 -35 117 -91 7 -21 18 -39 26 -39 10 0 13 21 13 85
0 86 -9 104 -35 69 -11 -15 -14 -15 -43 0 -35 18 -127 21 -157 4z"/>
<path d="M1247 1634 c-4 -4 -7 -38 -7 -76 0 -51 3 -68 14 -68 7 0 16 13 19 30
9 44 40 70 85 70 l37 0 -5 -212 -5 -213 -27 -3 c-16 -2 -28 -9 -28 -18 0 -11
24 -14 130 -14 109 0 130 2 130 15 0 9 -9 15 -23 15 -44 0 -47 12 -47 227 l0
203 39 0 c42 0 75 -29 87 -77 4 -12 13 -23 21 -23 11 0 13 15 11 73 l-3 72
-211 3 c-115 1 -213 -1 -217 -4z"/>
<path d="M1707 1633 c-14 -13 -7 -23 16 -23 45 0 47 -12 47 -231 0 -222 1
-219 -52 -219 -11 0 -18 -5 -16 -12 7 -20 258 -24 258 -5 0 8 -13 17 -30 21
l-30 6 0 208 c0 215 3 232 42 232 10 0 18 7 18 15 0 13 -20 15 -123 15 -68 0
-127 -3 -130 -7z"/>
<path d="M1997 1633 c-4 -3 -7 -37 -7 -75 0 -51 3 -68 14 -68 8 0 16 11 20 23
12 48 45 77 87 77 l39 0 0 -203 c0 -215 -3 -227 -47 -227 -14 0 -23 -6 -23
-15 0 -13 21 -15 130 -15 106 0 130 3 130 14 0 9 -12 16 -27 18 l-28 3 -5 213
-5 212 38 0 c44 0 75 -26 84 -70 3 -17 12 -30 19 -30 11 0 14 18 14 75 l0 75
-213 0 c-118 0 -217 -3 -220 -7z"/>
<path d="M2467 1634 c-13 -14 -7 -22 22 -27 l29 -6 4 -183 c3 -204 11 -232 71
-268 46 -28 178 -28 225 0 63 39 72 67 72 231 0 185 5 209 42 223 50 19 25 31
-62 31 -88 0 -114 -14 -58 -30 l33 -10 3 -155 c2 -93 -1 -170 -8 -193 -24 -83
-145 -104 -179 -30 -16 34 -15 365 1 381 7 7 23 12 36 12 14 0 22 5 20 13 -5
13 -238 24 -251 11z"/>
<path d="M2990 1564 c0 -55 3 -75 12 -72 7 3 16 18 20 36 10 39 42 62 85 62
l33 0 0 -209 c0 -224 1 -221 -52 -221 -11 0 -18 -5 -15 -12 3 -10 38 -13 132
-13 94 0 129 3 133 13 2 7 -5 12 -16 12 -53 0 -52 -3 -52 221 l0 209 33 0 c43
0 73 -22 87 -65 19 -56 30 -41 30 40 l0 75 -215 0 -215 0 0 -76z"/>
<path d="M3455 1630 c-8 -13 -9 -13 30 -26 l30 -9 3 -204 c3 -216 0 -231 -44
-231 -15 0 -24 -6 -24 -15 0 -13 30 -15 209 -15 239 0 213 -12 227 108 8 74
-5 81 -35 19 -25 -51 -60 -74 -127 -82 -71 -9 -77 -1 -82 104 -4 76 -2 91 10
91 31 0 68 -41 74 -81 4 -23 12 -39 20 -39 11 0 14 27 14 135 0 109 -3 135
-14 135 -8 0 -17 -15 -20 -36 -8 -41 -37 -74 -66 -74 -19 0 -20 7 -20 90 l0
90 55 0 c30 0 66 -5 80 -12 27 -12 55 -54 55 -83 0 -8 7 -15 15 -15 13 0 15
13 13 78 l-3 77 -197 3 c-133 2 -199 -1 -203 -8z"/>
<path d="M4110 1626 c0 -7 14 -16 30 -20 l30 -6 -2 -217 -3 -218 -27 -3 c-16
-2 -28 -9 -28 -18 0 -11 24 -14 130 -14 109 0 130 2 130 15 0 9 -9 15 -23 15
-40 0 -47 18 -47 117 l0 93 28 -6 c37 -9 63 -35 71 -75 3 -18 12 -34 19 -37 9
-3 12 28 12 127 0 110 -2 131 -15 131 -9 0 -15 -9 -15 -24 0 -37 -37 -76 -71
-76 l-29 0 0 91 0 91 69 -4 c80 -4 107 -22 117 -74 4 -20 12 -34 21 -34 11 0
13 16 11 78 l-3 77 -202 3 c-168 2 -203 0 -203 -12z"/>
<path d="M4705 1621 c-94 -42 -144 -125 -145 -236 0 -84 29 -156 81 -199 56
-48 93 -58 190 -54 78 3 92 6 131 33 60 43 108 137 108 212 0 31 -5 73 -12 95
-15 51 -82 126 -133 149 -54 25 -166 25 -220 0z m180 -47 c33 -35 48 -114 43
-221 -5 -114 -27 -162 -84 -182 -34 -12 -44 -12 -69 0 -49 24 -69 71 -73 178
-8 174 27 251 115 251 34 0 49 -6 68 -26z"/>
<path d="M5100 1628 c0 -9 12 -18 30 -21 l30 -6 0 -216 0 -215 -30 -6 c-16 -4
-30 -13 -30 -20 0 -11 26 -14 125 -14 99 0 125 3 125 14 0 7 -13 16 -30 20
l-30 6 0 95 c0 52 4 95 8 95 5 0 43 -52 86 -115 l77 -115 80 0 c61 0 79 3 79
14 0 7 -8 16 -18 18 -26 7 -167 208 -146 208 9 0 31 15 50 34 30 30 34 40 34
89 0 41 -5 61 -22 82 -36 46 -75 55 -254 62 -143 5 -164 4 -164 -9z m291 -57
c19 -16 23 -28 23 -76 0 -69 -23 -95 -85 -95 l-39 0 0 95 0 95 39 0 c23 0 48
-8 62 -19z"/>
<path d="M5798 1635 c-14 -14 -9 -25 11 -25 47 0 51 -19 51 -221 0 -112 -4
-198 -10 -210 -6 -11 -21 -19 -35 -19 -16 0 -25 -6 -25 -15 0 -13 21 -15 130
-15 109 0 130 2 130 15 0 9 -9 15 -23 15 -13 0 -28 5 -35 12 -16 16 -17 191
-1 186 6 -2 45 -53 87 -113 l77 -110 286 -3 287 -2 6 32 c17 100 19 138 4 138
-8 0 -20 -16 -26 -35 -19 -49 -61 -81 -121 -89 -83 -11 -91 -2 -91 105 0 89 0
90 23 84 31 -9 55 -40 63 -81 3 -19 11 -33 18 -31 7 2 12 49 14 135 2 108 0
132 -12 132 -8 0 -18 -18 -25 -45 -11 -43 -33 -65 -65 -65 -13 0 -16 15 -16
90 l0 90 55 0 c30 0 65 -5 79 -11 23 -11 56 -62 56 -88 0 -6 7 -11 15 -11 13
0 15 13 13 78 l-3 77 -199 0 c-151 0 -200 -3 -203 -12 -3 -8 4 -13 15 -13 47
0 52 -19 52 -215 0 -212 -5 -235 -52 -235 -18 0 -39 4 -45 8 -7 4 -42 50 -78
102 l-64 94 34 20 c93 53 83 180 -17 232 -31 16 -348 32 -360 19z m291 -71
c14 -18 21 -41 21 -69 0 -63 -29 -95 -86 -95 l-44 0 0 95 0 95 44 0 c36 0 48
-5 65 -26z"/>
<path d="M6876 1621 c-43 -28 -66 -70 -66 -120 0 -76 30 -108 182 -195 74 -42
89 -88 41 -126 -33 -26 -87 -23 -127 6 -23 18 -58 74 -70 117 -3 9 -10 17 -16
17 -6 0 -10 -36 -10 -95 0 -97 4 -105 39 -83 15 9 25 9 46 0 43 -20 145 -15
183 8 45 28 72 76 72 130 0 71 -31 108 -145 170 -80 44 -105 68 -105 100 0 37
18 50 67 50 54 0 109 -44 119 -96 3 -19 12 -34 20 -34 11 0 14 19 14 85 0 69
-3 85 -15 85 -8 0 -15 -7 -15 -15 0 -8 -2 -15 -5 -15 -3 0 -22 7 -42 15 -50
21 -131 19 -167 -4z"/>
<path d="M7185 1630 c-8 -13 -9 -13 30 -26 l30 -9 3 -204 c3 -216 0 -231 -44
-231 -15 0 -24 -6 -24 -15 0 -22 415 -23 423 -1 11 29 19 156 10 156 -5 0 -19
-20 -31 -45 -23 -48 -54 -69 -119 -80 -77 -12 -81 -7 -85 101 l-3 95 24 -6
c32 -8 49 -31 57 -77 4 -22 12 -38 20 -38 11 0 14 27 14 135 0 113 -2 135 -15
135 -8 0 -15 -9 -15 -20 0 -44 -36 -90 -71 -90 -5 0 -9 41 -9 91 l0 91 66 -4
c73 -5 100 -24 111 -80 3 -15 12 -28 20 -28 11 0 13 16 11 78 l-3 77 -197 3
c-133 2 -199 -1 -203 -8z"/>
<path d="M7857 1538 c-24 -57 -69 -159 -98 -227 -41 -95 -61 -128 -81 -140
-51 -29 -35 -41 57 -41 65 0 85 3 85 14 0 7 -13 16 -30 20 -33 6 -37 22 -19
75 l11 31 81 0 82 0 18 -45 c21 -50 17 -65 -19 -65 -14 0 -24 -6 -24 -15 0
-12 37 -14 255 -14 218 0 255 2 255 14 0 9 -10 15 -25 15 -35 0 -45 27 -45
120 0 61 3 81 13 78 6 -3 46 -54 87 -114 l75 -109 74 -3 c80 -3 111 9 69 28
-13 6 -54 56 -91 110 l-66 98 30 13 c64 26 89 119 49 184 -34 56 -76 67 -260
68 -163 2 -208 -8 -138 -28 l33 -10 3 -204 c1 -132 -1 -208 -8 -216 -19 -23
-70 -24 -96 -1 -14 12 -62 111 -117 240 -51 121 -98 221 -104 223 -6 2 -31
-42 -56 -99z m613 32 c15 -15 20 -33 20 -75 0 -71 -21 -95 -85 -95 l-45 0 0
95 0 95 45 0 c32 0 51 -6 65 -20z m-569 -197 l28 -63 -63 0 -64 0 32 74 c17
40 33 68 35 62 2 -6 17 -39 32 -73z"/>
<path d="M8852 1614 c-162 -80 -197 -303 -67 -423 54 -50 102 -64 201 -60 71
4 84 7 127 38 38 28 47 40 47 64 l0 29 -37 -32 c-108 -95 -230 -73 -264 48
-20 67 -17 168 4 224 25 64 66 93 132 93 65 0 107 -29 131 -90 28 -75 44 -59
44 45 0 91 -9 109 -35 74 -11 -16 -15 -16 -60 0 -74 25 -161 21 -223 -10z"/>
<path d="M9210 1627 c0 -8 14 -17 30 -21 l30 -6 -2 -217 -3 -218 -27 -3 c-16
-2 -28 -9 -28 -18 0 -11 24 -14 130 -14 109 0 130 2 130 15 0 9 -9 15 -23 15
-40 0 -47 18 -47 117 l0 93 78 0 77 0 -5 -102 -5 -103 -27 -3 c-16 -2 -28 -9
-28 -18 0 -11 24 -14 130 -14 109 0 130 2 130 15 0 9 -9 15 -24 15 -44 0 -47
15 -44 231 l3 204 33 10 c63 18 27 30 -101 33 -104 2 -127 0 -127 -11 0 -8 13
-17 29 -20 l30 -6 3 -96 3 -95 -78 0 -78 0 3 93 3 92 33 10 c63 18 27 30 -101
33 -104 2 -127 0 -127 -11z"/>
<path d="M9945 1629 c-8 -12 -8 -12 30 -25 l30 -9 3 -204 c3 -216 0 -231 -44
-231 -15 0 -24 -6 -24 -15 0 -13 21 -15 130 -15 106 0 130 3 130 14 0 8 -12
16 -27 18 -37 4 -41 23 -42 214 -1 202 2 223 40 231 16 3 29 12 29 19 0 11
-26 14 -124 14 -78 0 -127 -4 -131 -11z"/>
<path d="M10215 1629 c-4 -6 -5 -11 -4 -12 2 -1 18 -9 34 -17 l30 -16 0 -204
0 -205 -33 -10 c-57 -17 -30 -30 63 -30 62 0 90 4 93 13 2 7 -6 12 -22 12 -49
0 -57 30 -54 201 l3 153 149 -189 c82 -105 155 -191 162 -193 12 -3 14 33 14
207 0 115 4 221 9 234 6 14 21 27 36 31 15 4 25 12 22 19 -6 18 -167 22 -167
5 0 -8 13 -19 29 -25 l30 -11 3 -121 c2 -67 2 -121 1 -121 -1 0 -46 57 -100
127 -134 175 -119 163 -212 163 -46 0 -83 -5 -86 -11z"/>
<path d="M10920 1625 c0 -8 8 -15 18 -15 39 0 42 -17 42 -232 l0 -208 -30 -6
c-16 -4 -30 -13 -30 -21 0 -19 251 -15 258 5 2 7 -5 12 -16 12 -49 0 -52 6
-52 112 0 98 0 99 23 93 47 -14 67 -35 73 -75 4 -24 12 -40 20 -40 11 0 14 26
14 130 0 104 -3 130 -14 130 -7 0 -16 -13 -19 -30 -8 -38 -40 -70 -72 -70 -25
0 -25 1 -25 90 l0 90 55 0 c76 0 111 -20 126 -70 7 -22 18 -40 26 -40 11 0 13
17 11 78 l-3 77 -202 3 c-176 2 -203 0 -203 -13z"/>
<path d="M11357 1634 c-13 -14 -7 -22 22 -27 l29 -6 4 -183 c4 -204 11 -229
71 -267 51 -31 180 -30 227 2 64 43 72 68 78 264 l5 176 28 11 c16 6 29 16 29
24 0 10 -20 12 -87 10 -91 -3 -116 -17 -61 -33 l33 -10 3 -171 c2 -164 2 -172
-21 -205 -41 -61 -138 -63 -166 -3 -16 35 -15 366 1 382 7 7 23 12 36 12 14 0
22 5 20 13 -5 13 -238 24 -251 11z"/>
<path d="M11865 1629 c-4 -6 -5 -11 -4 -12 2 -1 18 -9 34 -17 l30 -16 3 -196
c2 -168 0 -198 -14 -212 -8 -9 -24 -16 -35 -16 -10 0 -19 -7 -19 -15 0 -12 17
-15 90 -15 70 0 90 3 90 14 0 7 -13 16 -30 19 -39 8 -41 21 -38 199 l3 148
149 -190 c82 -105 155 -190 163 -190 10 0 13 43 13 223 0 122 4 227 8 233 4 6
17 14 30 18 12 4 22 14 22 22 0 12 -15 14 -82 12 -83 -3 -114 -19 -61 -33 15
-3 31 -12 35 -18 4 -7 8 -63 8 -126 l0 -113 -107 138 c-59 77 -111 142 -117
146 -17 12 -164 9 -171 -3z"/>
<path d="M12380 1626 c0 -7 14 -16 30 -19 l30 -6 0 -216 0 -215 -30 -6 c-17
-4 -30 -13 -30 -21 0 -13 22 -15 148 -12 140 4 150 6 207 34 101 50 149 155
125 270 -25 117 -94 180 -217 196 -112 14 -263 12 -263 -5z m282 -56 c67 -52
86 -233 36 -338 -16 -32 -79 -66 -108 -57 -19 6 -20 14 -20 211 l0 204 34 0
c18 0 45 -9 58 -20z"/>
<path d="M13126 1608 c-43 -101 -158 -364 -176 -397 -11 -22 -29 -42 -40 -46
-11 -3 -20 -13 -20 -21 0 -11 18 -14 85 -14 65 0 85 3 85 14 0 7 -13 16 -30
20 -24 4 -30 11 -30 30 0 14 5 37 12 51 11 24 15 25 92 25 l82 0 17 -46 c19
-53 16 -64 -19 -64 -15 0 -24 -6 -24 -15 0 -12 20 -15 120 -15 97 0 120 3 120
14 0 8 -8 17 -18 20 -21 7 -40 47 -146 296 -41 96 -79 176 -85 178 -6 2 -18
-11 -25 -30z m31 -294 c-2 -3 -29 -4 -59 -2 l-55 3 31 71 31 71 28 -69 c16
-38 27 -71 24 -74z"/>
<path d="M13415 1629 c-8 -12 -8 -12 30 -25 l30 -9 3 -202 c2 -173 0 -203 -14
-217 -8 -9 -24 -16 -35 -16 -10 0 -19 -7 -19 -15 0 -12 17 -15 90 -15 67 0 90
3 90 13 0 7 -15 17 -32 22 l-33 10 -2 185 -3 185 87 -207 c47 -115 89 -208 93
-208 4 0 45 93 91 206 l84 206 3 -177 c3 -189 -1 -205 -44 -205 -15 0 -24 -6
-24 -15 0 -13 21 -15 130 -15 104 0 130 3 130 14 0 7 -13 16 -30 20 l-30 6 0
215 0 216 30 6 c17 3 30 12 30 19 0 11 -21 14 -92 14 -51 0 -98 -4 -104 -8 -6
-4 -36 -73 -68 -154 -32 -82 -59 -148 -60 -148 -2 0 -29 64 -61 143 -32 78
-63 148 -68 155 -12 15 -193 17 -202 1z"/>
<path d="M14090 1626 c0 -7 14 -16 30 -20 l30 -6 -2 -217 -3 -218 -27 -3 c-16
-2 -28 -9 -28 -18 0 -12 34 -14 209 -14 l209 0 11 75 c14 95 14 95 -3 95 -8 0
-17 -11 -20 -24 -12 -49 -53 -84 -113 -96 -40 -9 -62 -9 -79 -1 -23 10 -24 16
-24 101 0 90 0 91 23 84 36 -11 47 -24 58 -70 6 -24 15 -44 20 -44 5 0 9 61 9
135 0 138 -10 170 -30 95 -12 -45 -33 -70 -61 -70 -17 0 -19 8 -19 90 l0 90
59 0 c69 0 103 -21 121 -75 6 -19 18 -35 26 -35 12 0 14 15 12 78 l-3 77 -202
3 c-168 2 -203 0 -203 -12z"/>
<path d="M14567 1633 c-12 -11 -8 -23 8 -23 8 0 24 -9 35 -20 19 -19 20 -33
20 -209 0 -202 -4 -221 -51 -221 -10 0 -19 -7 -19 -15 0 -12 17 -15 90 -15 70
0 90 3 90 14 0 7 -13 16 -30 19 -39 8 -41 21 -38 198 l3 147 148 -189 c82
-104 155 -189 163 -189 12 0 14 37 14 223 0 122 4 227 8 233 4 6 17 15 30 19
48 14 16 30 -63 30 -82 0 -114 -17 -56 -30 39 -8 43 -23 39 -153 l-3 -103 -85
113 c-143 189 -130 178 -219 178 -43 0 -81 -3 -84 -7z"/>
<path d="M15097 1634 c-4 -4 -7 -38 -7 -76 0 -51 3 -68 14 -68 7 0 16 12 19
28 9 45 42 72 87 72 l40 0 0 -189 c0 -209 -6 -241 -45 -241 -16 0 -25 -6 -25
-15 0 -13 21 -15 130 -15 109 0 130 2 130 15 0 9 -9 15 -23 15 -44 0 -47 12
-47 227 l0 203 38 0 c44 0 76 -27 87 -72 4 -16 14 -28 22 -28 11 0 13 15 11
73 l-3 72 -211 3 c-115 1 -213 -1 -217 -4z"/>
<path d="M15651 1423 c-90 -211 -120 -263 -148 -263 -7 0 -13 -7 -13 -15 0
-12 16 -15 85 -15 66 0 85 3 85 14 0 8 -11 17 -25 20 -34 9 -39 26 -21 70 l15
36 80 0 79 0 17 -44 c19 -48 14 -66 -16 -66 -10 0 -19 -7 -19 -15 0 -12 20
-15 120 -15 90 0 120 3 120 13 0 7 -10 17 -22 22 -18 8 -47 66 -123 243 -55
127 -104 232 -110 232 -6 0 -52 -98 -104 -217z m93 -48 l24 -60 -55 -3 c-30
-2 -57 -1 -59 1 -2 2 8 34 23 70 16 36 31 63 35 59 4 -4 19 -34 32 -67z"/>
<path d="M16020 1626 c0 -7 14 -16 30 -20 l30 -6 -2 -217 -3 -218 -27 -3 c-16
-2 -28 -9 -28 -18 0 -12 35 -14 214 -14 l214 0 7 53 c3 28 9 71 12 95 7 58
-19 58 -36 0 -19 -60 -57 -94 -117 -102 -28 -4 -61 -3 -77 3 l-27 11 2 202 3
203 33 10 c17 5 32 15 32 22 0 10 -30 13 -130 13 -104 0 -130 -3 -130 -14z"/>
<path d="M16726 1621 c-43 -29 -66 -70 -66 -121 0 -77 27 -106 183 -194 57
-33 76 -64 59 -101 -25 -55 -105 -58 -159 -5 -28 27 -39 48 -57 103 -3 9 -10
17 -16 17 -6 0 -10 -36 -10 -95 0 -97 4 -105 39 -83 15 9 25 9 46 0 43 -20
145 -15 183 8 66 40 90 124 57 194 -18 37 -43 57 -130 106 -80 44 -105 68
-105 100 0 37 18 50 67 50 54 0 109 -44 119 -96 3 -19 12 -34 20 -34 11 0 14
19 14 85 0 69 -3 85 -15 85 -8 0 -15 -7 -15 -15 0 -8 -2 -15 -5 -15 -3 0 -22
7 -42 15 -50 21 -131 19 -167 -4z"/>
<path d="M17192 1614 c-91 -45 -142 -131 -142 -237 0 -76 18 -123 66 -177 50
-55 103 -73 207 -69 77 4 89 7 129 35 33 25 44 39 46 65 l4 33 -40 -36 c-48
-43 -101 -62 -154 -55 -79 11 -121 83 -122 213 0 67 4 90 24 129 60 116 207
110 256 -10 30 -73 44 -58 44 45 0 91 -9 109 -35 74 -11 -16 -15 -16 -60 0
-74 25 -161 21 -223 -10z"/>
<path d="M17550 1627 c0 -8 14 -17 30 -21 l30 -6 -2 -217 -3 -218 -27 -3 c-16
-2 -28 -9 -28 -18 0 -11 24 -14 130 -14 109 0 130 2 130 15 0 9 -9 15 -24 15
-44 0 -47 15 -44 231 l3 204 33 10 c63 18 27 30 -101 33 -104 2 -127 0 -127
-11z"/>
<path d="M17830 1626 c0 -7 14 -16 30 -19 l30 -6 0 -216 0 -215 -30 -6 c-16
-4 -30 -13 -30 -20 0 -12 35 -14 207 -12 l207 3 7 35 c18 94 20 130 7 130 -7
0 -20 -18 -29 -39 -9 -22 -28 -47 -43 -56 -34 -23 -103 -37 -138 -30 l-28 7 0
94 c0 94 0 95 23 89 29 -9 45 -31 58 -77 19 -73 29 -40 29 97 0 136 -10 169
-29 99 -12 -44 -38 -74 -63 -74 -16 0 -18 9 -18 90 l0 90 59 0 c69 0 103 -21
121 -75 19 -57 30 -40 30 45 l0 80 -200 0 c-163 0 -200 -3 -200 -14z"/>
<path d="M18304 1628 c-4 -6 -2 -14 4 -16 6 -2 22 -12 36 -23 l26 -20 0 -177
c0 -97 -3 -187 -6 -200 -4 -15 -17 -25 -35 -29 -16 -3 -29 -12 -29 -19 0 -11
20 -14 90 -14 67 0 90 3 90 13 0 7 -15 17 -32 22 l-33 10 -3 169 -2 168 148
-188 c81 -104 156 -190 165 -192 16 -3 17 16 17 228 l0 231 30 11 c54 18 29
33 -55 33 -79 0 -112 -16 -61 -29 39 -10 47 -36 44 -151 l-3 -106 -110 143
-111 143 -81 3 c-56 2 -84 -1 -89 -10z"/>
<path d="M18985 1618 c-97 -50 -149 -134 -150 -243 0 -95 38 -165 115 -212 50
-30 61 -33 138 -33 89 0 125 12 175 58 25 24 38 72 19 72 -5 0 -21 -14 -38
-31 -80 -85 -204 -77 -245 15 -26 60 -35 160 -19 225 21 91 98 146 175 127 37
-9 91 -61 101 -97 5 -18 15 -34 22 -37 9 -3 12 20 12 87 0 88 -8 110 -28 75
-9 -16 -13 -16 -57 0 -68 23 -170 20 -220 -6z"/>
<path d="M19337 1633 c-14 -13 -7 -23 16 -23 44 0 47 -12 47 -225 0 -213 -3
-225 -47 -225 -14 0 -23 -6 -23 -15 0 -13 28 -15 212 -13 l212 3 7 40 c16 100
17 125 5 125 -7 0 -20 -18 -30 -41 -21 -47 -60 -74 -122 -84 -80 -12 -84 -7
-84 101 0 94 0 95 23 89 27 -8 46 -32 53 -65 9 -42 13 -50 24 -50 6 0 10 49
10 135 0 108 -3 135 -14 135 -8 0 -16 -15 -19 -36 -7 -42 -32 -74 -59 -74 -16
0 -18 9 -18 90 l0 90 59 0 c68 0 106 -23 119 -72 4 -18 13 -33 20 -36 9 -3 12
19 12 77 l0 81 -198 0 c-109 0 -202 -3 -205 -7z"/>
<path d="M19915 1628 c-65 -36 -94 -99 -75 -167 12 -46 51 -83 141 -133 83
-47 101 -67 97 -109 -4 -43 -39 -65 -91 -55 -51 10 -94 49 -114 107 -28 79
-43 64 -43 -46 0 -96 8 -113 38 -83 9 9 21 9 50 0 58 -18 149 -15 183 5 l29
17 0 113 0 113 -44 28 c-25 15 -67 39 -96 55 -62 34 -80 65 -56 102 14 21 24
25 63 25 39 0 50 -5 78 -34 17 -18 36 -49 42 -67 10 -30 11 -23 12 55 1 77 -1
87 -12 72 -13 -17 -15 -17 -45 -2 -35 18 -127 21 -157 4z"/>
</g>
</svg>
