<?xml version="1.0" standalone="no"?>
<!DOCTYPE svg PUBLIC "-//W3C//DTD SVG 20010904//EN"
 "http://www.w3.org/TR/2001/REC-SVG-20010904/DTD/svg10.dtd">
<svg version="1.0" xmlns="http://www.w3.org/2000/svg"
 width="169.000000pt" height="139.000000pt" viewBox="0 0 169.000000 139.000000"
 preserveAspectRatio="xMidYMid meet">

<g transform="translate(0.000000,139.000000) scale(0.100000,-0.100000)"
fill="#000000" stroke="none">
<path d="M730 1330 c-9 -6 32 -52 153 -171 92 -89 167 -165 167 -168 0 -3 -19
-21 -41 -40 l-41 -34 -188 188 c-172 172 -190 187 -207 175 -10 -8 -20 -16
-23 -18 -2 -2 82 -87 189 -190 l193 -187 -34 -32 -33 -32 -197 196 -197 196
-25 -17 c-15 -9 -26 -22 -26 -29 0 -6 90 -100 200 -207 l200 -195 -25 -28 -25
-29 -205 203 c-113 111 -206 201 -208 198 -2 -2 -13 -18 -25 -35 l-21 -31 199
-199 c110 -109 200 -201 200 -204 0 -4 -6 -15 -14 -25 -13 -18 -27 -7 -211
173 -108 106 -200 192 -205 192 -5 0 -16 -21 -26 -46 l-17 -45 146 -147 c133
-133 159 -167 141 -184 -3 -4 -71 58 -152 137 l-147 143 -7 -41 c-18 -112 -43
-79 323 -436 l330 -324 67 7 c36 4 67 8 68 9 2 1 -56 62 -127 135 -118 121
-142 156 -122 176 4 4 75 -61 159 -145 l152 -151 52 24 53 23 -181 175 c-100
95 -182 179 -182 185 0 6 6 19 13 29 12 16 30 1 201 -166 104 -100 192 -184
196 -186 4 -2 21 9 36 23 l29 25 -202 200 -202 200 17 30 c9 16 19 30 22 30 3
0 101 -92 217 -205 l211 -205 21 27 21 28 -216 211 -217 211 24 34 c13 19 25
36 26 38 1 2 98 -90 215 -204 193 -188 213 -205 225 -189 7 10 13 20 13 24 0
3 -92 97 -205 210 -113 112 -205 206 -205 210 0 3 14 23 31 44 l32 38 191
-191 c105 -105 195 -191 199 -191 31 0 -18 61 -178 220 -102 101 -185 187
-185 190 0 3 18 25 40 50 l39 45 151 -150 c82 -82 150 -143 150 -134 0 9 -63
75 -140 148 -77 73 -140 137 -140 143 0 6 14 26 31 45 16 19 28 37 26 40 -3 2
-23 -7 -46 -21 -22 -14 -44 -26 -48 -26 -5 0 -62 54 -128 120 -66 66 -125 120
-133 120 -7 0 44 -55 113 -121 69 -67 125 -125 125 -128 0 -4 -22 -23 -49 -43
l-48 -36 -44 45 c-135 138 -296 281 -309 273z m459 -291 c-123 -136 -161 -185
-249 -316 -100 -151 -177 -297 -210 -398 -12 -38 -25 -73 -29 -77 -4 -4 -51
37 -106 92 l-100 100 19 53 c40 113 31 108 82 49 l46 -53 35 58 c83 139 207
283 332 387 75 63 228 176 238 176 3 0 -24 -32 -58 -71z"/>
<path d="M1279 1193 c10 -19 52 -59 86 -83 11 -8 -5 12 -35 43 -58 61 -66 67
-51 40z"/>
<path d="M215 605 c9 -67 47 -179 81 -240 15 -27 64 -87 108 -131 67 -68 97
-89 176 -127 88 -42 198 -74 231 -66 8 3 -115 132 -294 309 l-309 305 7 -50z"/>
</g>
</svg>
