<svg version="1.1" id="Layer_1" xmlns="http://www.w3.org/2000/svg" xmlns:xlink="http://www.w3.org/1999/xlink" x="0px" y="0px"
	 width="100%" viewBox="0 0 225 225" enable-background="new 0 0 225 225" xml:space="preserve">
<path fill="#000000" opacity="1.000000" stroke="none" 
	d="
M226.000000,54.000000 
	C226.000000,111.666664 226.000000,168.833328 226.000000,226.000000 
	C151.000000,226.000000 76.000000,226.000000 1.000000,226.000000 
	C1.000000,151.000000 1.000000,76.000000 1.000000,1.000000 
	C76.000000,1.000000 151.000000,1.000000 226.000000,1.000000 
	C226.000000,18.500000 226.000000,36.000000 226.000000,54.000000 
M56.499893,220.711075 
	C111.088699,220.711075 165.677505,220.711075 220.348053,220.711075 
	C220.348053,148.932617 220.348053,77.751526 220.348053,6.586126 
	C148.882050,6.586126 77.816307,6.586126 6.677487,6.586126 
	C6.677487,78.066917 6.677487,149.249649 6.677487,220.711060 
	C23.209671,220.711060 39.354778,220.711060 56.499893,220.711075 
z"/>
<path fill="#E3E3E3" opacity="1.000000" stroke="none" 
	d="
M55.999889,220.711060 
	C39.354778,220.711060 23.209671,220.711060 6.677487,220.711060 
	C6.677487,149.249649 6.677487,78.066917 6.677487,6.586126 
	C77.816307,6.586126 148.882050,6.586126 220.348053,6.586126 
	C220.348053,77.751526 220.348053,148.932617 220.348053,220.711075 
	C165.677505,220.711075 111.088699,220.711075 55.999889,220.711060 
M10.053763,70.499992 
	C10.053763,119.256523 10.053763,168.013046 10.053763,216.591980 
	C79.401932,216.591980 148.129578,216.591980 216.724548,216.591980 
	C216.724548,147.628021 216.724548,79.018478 216.724548,10.319695 
	C147.775269,10.319695 79.048035,10.319695 10.053763,10.319695 
	C10.053763,30.222939 10.053763,49.861462 10.053763,70.499992 
z"/>
<path fill="#000000" opacity="1.000000" stroke="none" 
	d="
M10.053763,69.999985 
	C10.053763,49.861462 10.053763,30.222939 10.053763,10.319695 
	C79.048035,10.319695 147.775269,10.319695 216.724548,10.319695 
	C216.724548,79.018478 216.724548,147.628021 216.724548,216.591980 
	C148.129578,216.591980 79.401932,216.591980 10.053763,216.591980 
	C10.053763,168.013046 10.053763,119.256523 10.053763,69.999985 
M59.500107,13.256963 
	C44.231514,13.256963 28.962919,13.256963 13.576487,13.256963 
	C13.576487,80.339012 13.576487,146.856873 13.576487,213.371109 
	C80.408127,213.371109 146.919495,213.371109 213.309418,213.371109 
	C213.309418,146.479599 213.309418,79.960861 213.309418,13.256968 
	C162.095932,13.256968 111.298019,13.256968 59.500107,13.256963 
z"/>
<path fill="#F8F8F8" opacity="1.000000" stroke="none" 
	d="
M60.000107,13.256966 
	C111.298019,13.256968 162.095932,13.256968 213.309418,13.256968 
	C213.309418,79.960861 213.309418,146.479599 213.309418,213.371109 
	C146.919495,213.371109 80.408127,213.371109 13.576487,213.371109 
	C13.576487,146.856873 13.576487,80.339012 13.576487,13.256963 
	C28.962919,13.256963 44.231514,13.256963 60.000107,13.256966 
M124.643219,196.058517 
	C121.205124,196.058517 117.767029,196.058517 113.942841,196.058517 
	C115.038719,199.671112 116.367943,204.052948 117.827354,208.863968 
	C117.981018,207.643448 118.119019,206.832550 118.179565,206.015915 
	C118.410843,202.896484 116.213089,198.145416 122.859634,199.360840 
	C123.377670,199.455582 124.285492,197.418747 125.060249,197.285004 
	C126.267235,199.738068 127.474228,202.191116 128.642288,204.565079 
	C129.221222,200.849655 129.260712,200.976868 133.901596,199.536209 
	C134.942657,199.213028 135.601364,197.658096 136.623016,196.448990 
	C132.648849,196.010742 129.453064,195.603806 126.244606,195.373825 
	C125.845383,195.345200 125.378906,196.255035 124.643219,196.058517 
M105.197350,163.801132 
	C107.484680,165.259201 109.772018,166.717255 112.055176,168.182404 
	C118.132095,161.781464 117.808830,159.113159 110.060051,154.923569 
	C108.403381,157.255600 106.707047,159.643463 104.294724,162.280655 
	C102.610291,159.903030 100.925850,157.525391 98.871155,154.625137 
	C95.658554,158.660980 93.770332,161.033066 91.932259,163.342148 
	C94.650642,165.320068 97.042931,167.060699 99.595985,168.918320 
	C101.315384,167.064575 103.128334,165.109970 105.197350,163.801132 
M47.152172,45.550831 
	C52.675564,38.762016 52.223976,36.351593 44.328674,31.772596 
	C42.370811,34.278168 40.386543,36.817528 39.234104,38.292362 
	C41.506382,41.133232 43.453346,43.567387 45.321316,46.731075 
	C43.361359,49.311821 41.401405,51.892570 39.329121,54.621220 
	C40.858597,55.836903 42.195961,56.764957 43.368370,57.868286 
	C44.635170,59.060455 45.747837,60.416401 46.932220,61.705784 
	C53.464100,55.018059 53.461494,54.374321 47.268826,47.726631 
	C46.875999,47.304943 46.806934,46.581661 47.152172,45.550831 
M128.758789,62.333504 
	C131.140976,64.393646 133.523163,66.453789 135.930649,68.535797 
	C142.977356,61.612926 142.715439,58.376698 134.485947,54.059860 
	C132.313416,56.419495 130.137421,58.782883 127.746796,60.497429 
	C126.169106,58.426117 124.591423,56.354805 122.679115,53.844181 
	C119.426308,57.752396 117.237068,60.382732 115.242455,62.779243 
	C118.111626,65.436394 120.572052,67.715004 123.662750,70.577301 
	C125.226173,67.664719 126.665070,64.984116 128.758789,62.333504 
M101.477104,146.659851 
	C100.112427,148.868149 98.747757,151.076447 97.457581,153.164200 
	C99.741013,154.974106 101.874542,156.665192 103.984116,158.337296 
	C109.997635,152.043564 109.447296,149.134750 102.581612,145.693680 
	C106.804718,144.370056 111.027824,143.046448 115.286690,141.711624 
	C116.859283,149.765274 116.859283,149.765274 129.056473,150.290848 
	C130.110855,153.852737 130.644867,157.535919 132.262466,160.657623 
	C134.407028,164.796326 138.824539,166.328415 142.933884,165.068329 
	C145.059662,164.416504 147.176895,161.020538 147.721970,158.520737 
	C148.719833,153.944366 148.548447,149.113068 148.896378,143.913986 
	C153.503677,142.738968 158.759308,141.398605 164.781647,139.862701 
	C164.488037,141.926117 164.556900,143.568298 164.006378,144.966644 
	C160.373505,154.194138 156.444275,163.308304 152.978500,172.596313 
	C151.855545,175.605789 150.003662,176.775726 147.450119,175.833389 
	C145.373413,175.067032 143.742249,173.093414 141.757233,171.532272 
	C133.138840,177.732880 131.537277,177.725037 127.842194,171.493774 
	C124.397728,173.159851 121.097488,175.122681 117.548904,176.390320 
	C111.605843,178.513290 111.621231,173.392624 110.928032,170.344284 
	C105.677460,172.781891 100.900574,175.459076 95.808945,177.232681 
	C90.830063,178.967026 86.810356,176.726639 85.185326,171.803925 
	C84.369225,169.331711 84.075745,166.591049 84.072525,163.971161 
	C84.068672,160.840485 84.123039,157.302109 80.827354,156.423981 
	C78.302986,155.751389 74.804329,156.320740 72.503281,157.655380 
	C63.927776,162.629288 60.379044,170.843826 59.099190,180.348846 
	C58.549084,184.434280 60.116985,186.708740 63.989033,187.659271 
	C66.271202,188.219528 68.540764,188.831116 72.217010,189.781998 
	C61.469475,195.257935 51.753471,198.664963 41.153023,199.147339 
	C35.617001,199.399246 31.426584,197.090393 30.231617,191.751694 
	C29.208172,187.179306 29.221912,182.201126 29.734104,177.506866 
	C30.258860,172.697479 31.946423,168.014954 33.125034,163.276901 
	C32.684914,163.203537 32.244793,163.130157 31.804672,163.056793 
	C26.545460,176.069427 22.151543,189.276215 27.118511,203.593430 
	C29.005527,209.032715 33.887486,211.699661 39.925362,210.923935 
	C51.442696,209.444229 62.201912,205.668716 71.591843,198.699127 
	C74.068855,196.860565 76.298889,194.384338 77.916473,191.754456 
	C81.609703,185.749969 80.272614,182.360306 73.660431,179.948502 
	C70.152321,178.668900 66.559822,177.620682 63.005417,176.468018 
	C62.755108,175.913162 62.504803,175.358307 62.254498,174.803452 
	C65.691010,171.971130 68.808670,168.547089 72.654655,166.474609 
	C76.422707,164.444122 78.488960,166.233780 78.873260,170.524124 
	C79.109802,173.164902 79.208557,175.848221 79.773422,178.423782 
	C81.581238,186.666687 86.274460,189.606781 94.369392,187.122818 
	C98.883041,185.737793 103.112679,183.427261 107.546997,181.500488 
	C108.299980,184.711533 109.704956,188.020935 113.840599,187.408295 
	C116.967674,186.945068 119.919327,185.297577 123.000435,184.158127 
	C126.618057,188.498108 128.652939,188.407379 137.456726,183.929932 
	C142.080414,185.538208 145.848938,186.849045 149.725357,188.197403 
	C149.522430,189.252884 149.170151,190.536850 149.041809,191.842819 
	C148.277237,199.623077 151.811615,204.531570 158.467056,205.014572 
	C165.490540,205.524277 169.916214,201.147491 170.043457,193.243271 
	C170.098862,189.801147 169.639023,186.350708 169.388901,182.533493 
	C173.275681,182.030716 177.199036,181.440613 181.140945,181.027451 
	C199.365219,179.117355 207.524551,168.109406 202.310242,151.814453 
	C199.470520,154.821228 197.040009,157.752167 198.487045,162.006317 
	C199.584381,165.232376 198.042831,166.968658 195.403244,167.640503 
	C185.506714,170.159485 175.547394,172.431885 166.326569,174.626541 
	C166.326569,165.133209 166.326569,156.706451 166.326569,148.232224 
	C172.130035,150.819931 176.588867,147.669128 181.167892,145.644257 
	C183.306961,149.532928 185.925598,150.059311 190.069305,147.562195 
	C199.942734,141.612152 201.835205,127.199051 196.158890,117.687607 
	C192.251755,123.169991 191.665695,125.569283 194.128387,131.135345 
	C195.800949,134.915527 194.555344,137.143661 191.055908,137.737976 
	C189.007202,138.085907 186.684830,136.822433 184.485565,136.283844 
	C172.060608,141.731995 169.770523,140.963913 167.627991,129.373657 
	C160.411179,131.424927 153.178192,133.480804 146.318604,135.430542 
	C146.318604,126.736633 146.318604,118.900276 146.318604,110.619141 
	C152.169464,106.419731 155.007431,97.030479 152.599533,88.270035 
	C152.206497,86.840103 151.099213,84.989159 151.615463,84.026291 
	C155.102814,77.522034 149.940399,73.090408 147.737473,67.748177 
	C146.455307,72.206657 145.276978,76.755074 145.645767,81.174362 
	C146.052994,86.054131 148.097458,90.776817 148.959747,95.650902 
	C149.236267,97.213882 148.021317,99.040726 147.488739,100.746849 
	C145.687119,100.081100 143.844238,99.504181 142.108139,98.697426 
	C141.561890,98.443581 141.302246,97.572975 140.876022,96.931396 
	C133.856445,103.454857 132.872559,103.496849 131.497131,97.595741 
	C128.618866,99.223549 125.830177,101.042992 122.843506,102.438820 
	C116.838142,105.245445 114.852325,104.194756 113.582138,98.008812 
	C106.522522,100.779716 99.519615,103.769798 92.339767,106.247002 
	C88.618423,107.530937 84.611511,108.286430 80.681931,108.573677 
	C77.489883,108.807007 74.134499,108.072273 75.307793,102.996902 
	C76.636108,102.996902 77.959335,103.089645 79.266014,102.981819 
	C87.587418,102.295128 95.810135,101.209625 102.886162,96.200470 
	C115.439705,87.313736 114.852150,73.457291 101.639183,66.118034 
	C95.698280,62.818100 89.593086,59.765587 83.904228,56.074097 
	C78.428894,52.521152 78.454391,50.751865 83.884476,47.029346 
	C96.700188,38.243706 110.672760,31.804182 125.751129,28.020731 
	C134.727722,25.768332 136.003128,27.253056 133.451477,35.745476 
	C137.193344,33.682682 139.591843,26.964239 137.943222,22.619179 
	C136.130997,17.842869 132.151871,18.156010 128.308838,19.142286 
	C122.742004,20.570963 117.265533,22.351736 111.238991,24.133558 
	C111.336479,23.133560 111.422997,22.546139 111.446747,21.956188 
	C111.687843,15.966693 110.409729,14.865104 104.950661,17.187483 
	C99.316475,19.584366 93.597763,22.022793 88.480171,25.318926 
	C84.275482,28.027077 80.897301,32.018475 76.705742,35.815323 
	C76.610603,36.155716 76.515472,36.496109 76.420341,36.836506 
	C77.003937,36.616627 77.587532,36.396751 78.832397,35.986485 
	C87.419640,31.354912 95.989784,26.691175 104.604332,22.110960 
	C107.258995,20.699516 109.356544,20.897816 109.672737,24.788336 
	C108.524788,25.289410 107.321960,25.812378 106.120766,26.339075 
	C96.652344,30.490782 87.339554,34.912750 80.414459,42.964226 
	C72.622574,52.023476 73.369987,60.288475 83.146629,67.109200 
	C89.096130,71.259895 95.699020,74.468536 101.961243,78.179909 
	C103.843597,79.295502 105.567368,80.678673 107.730553,82.196632 
	C101.477081,88.227501 94.141449,89.768188 86.944099,91.468056 
	C78.353317,93.497009 74.106018,90.814537 73.074799,82.048279 
	C71.443108,68.177322 70.470222,54.230114 68.986870,40.339912 
	C68.284683,33.764633 67.046265,27.246618 66.050797,20.702660 
	C61.236977,26.852831 61.113358,33.605133 62.284958,40.012638 
	C66.481583,62.964108 65.084290,86.560837 70.820869,109.353226 
	C72.938217,117.765816 76.658318,121.573326 85.058701,119.318947 
	C92.811012,117.238495 100.269562,114.063438 108.354004,111.194290 
	C113.981239,116.811310 114.217003,116.806992 124.745972,110.012344 
	C130.169128,113.631210 132.206284,113.301094 138.732117,107.651756 
	C139.818512,108.612289 140.922653,109.588516 141.772079,110.339546 
	C138.770477,118.676186 135.605942,126.688278 133.055679,134.891342 
	C131.862976,138.727737 129.395218,139.691818 126.101784,139.862167 
	C122.406776,140.053268 120.241234,137.914581 119.139191,134.611725 
	C118.640282,133.116516 118.420601,131.528137 118.038025,129.820297 
	C114.961205,130.787964 112.332352,131.816513 109.610298,132.434464 
	C99.932549,134.631424 90.300415,137.244186 80.499138,138.608475 
	C73.659821,139.560471 71.071960,137.279099 69.094948,130.780640 
	C67.411255,125.246315 66.331062,119.526535 65.028801,113.878441 
	C62.885582,104.582932 60.778664,95.279045 58.656437,85.978691 
	C55.199898,91.327011 53.902802,96.515694 55.915905,102.196892 
	C57.073891,105.464859 58.246937,108.854805 58.554283,112.267197 
	C59.020569,117.444313 60.531467,123.627060 58.395870,127.705589 
	C54.192566,135.732986 46.577229,141.109558 37.711433,143.928925 
	C31.602697,145.871521 28.515694,143.321167 28.808640,136.794449 
	C28.952969,133.578903 29.606308,130.386215 30.029318,127.183174 
	C25.946480,134.333374 23.923208,141.854858 26.049612,149.943405 
	C27.139133,154.087799 30.022034,156.905350 34.447060,155.896027 
	C39.357372,154.775986 44.695629,153.588272 48.666309,150.767334 
	C54.058876,146.936234 58.330254,141.526993 62.796677,137.079224 
	C65.977104,146.796463 69.772385,149.983521 80.417480,149.339508 
	C87.319901,148.921921 94.140991,147.160034 101.477104,146.659851 
M182.499130,79.018356 
	C186.440216,82.058838 190.304535,85.206703 194.351028,88.099747 
	C196.799301,89.850143 197.216827,91.814766 195.249725,93.851875 
	C186.607880,102.801292 176.081696,108.477104 163.917984,110.925018 
	C159.988297,111.715858 158.041763,109.342987 157.942062,105.492828 
	C157.870758,102.739388 157.928192,99.982605 157.928192,97.227318 
	C157.527405,97.175056 157.126633,97.122787 156.725845,97.070526 
	C156.041794,102.520828 154.957092,107.957436 154.770264,113.424728 
	C154.508820,121.075859 157.001083,123.667824 164.325287,121.932625 
	C181.044067,117.971718 193.974167,108.389442 202.321274,93.174622 
	C204.302963,89.562439 203.769287,85.869667 200.922134,82.572731 
	C195.778229,76.616173 187.860565,73.840927 183.986023,66.055916 
	C181.925339,61.915470 176.399399,59.499664 172.289291,56.185795 
	C169.581329,61.475750 170.610703,66.364395 174.279007,70.732323 
	C176.622421,73.522652 179.393387,75.953903 182.499130,79.018356 
M23.000956,78.422127 
	C22.590742,86.767128 29.683140,89.574394 33.829617,93.011635 
	C32.792130,100.435509 31.585880,106.920708 31.079775,113.460098 
	C30.754656,117.660965 33.089867,119.768799 37.687225,119.200859 
	C43.851505,118.439354 47.710987,114.917229 49.721348,109.422905 
	C51.770397,103.822853 52.848217,98.071625 47.826397,93.192406 
	C45.576130,91.006058 43.269356,88.877853 40.926174,86.664658 
	C42.288311,83.866798 43.589062,81.195030 44.889812,78.523262 
	C44.469017,78.283577 44.048222,78.043900 43.627426,77.804222 
	C41.931217,80.281769 40.235012,82.759323 38.546936,85.224998 
	C33.427433,81.514557 28.546652,77.977135 23.157608,74.071342 
	C23.074442,75.933647 23.037571,76.759293 23.000956,78.422127 
M158.002945,70.433029 
	C159.613098,81.600052 161.223251,92.767075 162.851334,104.058395 
	C167.265366,96.173973 166.812317,87.819168 165.806564,79.337082 
	C164.518112,68.470741 159.470306,57.815990 163.930313,46.579571 
	C164.378769,45.449749 164.103104,43.900402 163.807129,42.628689 
	C161.927856,34.553883 159.948349,26.502401 157.682678,17.121515 
	C156.311859,22.779396 153.951813,27.679960 154.198135,32.445805 
	C154.839310,44.850117 156.624222,57.195312 158.002945,70.433029 
M190.164459,37.891632 
	C187.571838,40.068077 184.979233,42.244526 182.686569,44.169167 
	C180.808243,42.382732 178.826035,40.497486 176.560715,38.342987 
	C174.044067,41.367172 171.894714,43.949993 169.918015,46.325340 
	C172.826645,49.104282 175.261261,51.430347 177.901230,53.952602 
	C179.834976,51.306728 181.746658,48.691036 184.366074,45.107014 
	C186.499908,47.489258 188.442978,49.658524 190.394272,51.836975 
	C196.875580,46.171997 196.976913,44.160793 190.164459,37.891632 
M120.950050,49.883179 
	C121.051033,50.574249 120.895508,51.567219 121.295158,51.906765 
	C123.664017,53.919411 126.161583,55.780579 128.624496,57.699398 
	C135.202682,49.963615 134.833267,46.794949 126.166046,41.976280 
	C124.542229,44.338730 122.887039,46.746822 120.950050,49.883179 
M184.544403,27.879948 
	C180.415817,24.691584 178.239563,26.359201 175.397232,34.744637 
	C178.067795,36.945198 180.674484,39.093136 183.275085,41.236061 
	C189.138382,33.723160 189.197281,33.271442 184.544403,27.879948 
M137.864212,42.309814 
	C137.245132,43.035507 136.626068,43.761200 136.281815,44.164742 
	C139.041290,46.763882 141.637451,49.209213 144.226013,51.647381 
	C151.314865,44.008053 151.017639,41.037609 142.596313,36.435341 
	C141.182419,38.179695 139.744522,39.953644 137.864212,42.309814 
M188.677155,193.157623 
	C186.612671,195.650513 184.548187,198.143417 182.619049,200.472900 
	C185.579788,203.281219 188.035461,205.610458 190.496078,207.944397 
	C196.748672,199.989532 196.675461,199.077728 188.677155,193.157623 
M93.163795,195.315002 
	C91.330933,197.649139 89.498070,199.983276 87.871864,202.054230 
	C90.593292,204.583099 93.165405,206.973221 95.731155,209.357437 
	C102.085861,201.826630 101.584023,197.996185 93.163795,195.315002 
M80.099510,207.384155 
	C80.841431,208.265656 81.583351,209.147156 82.336235,210.041687 
	C89.211327,202.889359 88.922173,200.005157 80.741249,195.130661 
	C78.754158,197.664230 76.746651,200.223831 74.733215,202.790985 
	C76.615700,204.339355 78.130707,205.585464 80.099510,207.384155 
z"/>
<path fill="#050505" opacity="1.000000" stroke="none" 
	d="
M77.152786,35.441097 
	C80.897301,32.018475 84.275482,28.027077 88.480171,25.318926 
	C93.597763,22.022793 99.316475,19.584366 104.950661,17.187483 
	C110.409729,14.865104 111.687843,15.966693 111.446747,21.956188 
	C111.422997,22.546139 111.336479,23.133560 111.238991,24.133558 
	C117.265533,22.351736 122.742004,20.570963 128.308838,19.142286 
	C132.151871,18.156010 136.130997,17.842869 137.943222,22.619179 
	C139.591843,26.964239 137.193344,33.682682 133.451477,35.745476 
	C136.003128,27.253056 134.727722,25.768332 125.751129,28.020731 
	C110.672760,31.804182 96.700188,38.243706 83.884476,47.029346 
	C78.454391,50.751865 78.428894,52.521152 83.904228,56.074097 
	C89.593086,59.765587 95.698280,62.818100 101.639183,66.118034 
	C114.852150,73.457291 115.439705,87.313736 102.886162,96.200470 
	C95.810135,101.209625 87.587418,102.295128 79.266014,102.981819 
	C77.959335,103.089645 76.636108,102.996902 75.307793,102.996902 
	C74.134499,108.072273 77.489883,108.807007 80.681931,108.573677 
	C84.611511,108.286430 88.618423,107.530937 92.339767,106.247002 
	C99.519615,103.769798 106.522522,100.779716 113.582138,98.008812 
	C114.852325,104.194756 116.838142,105.245445 122.843506,102.438820 
	C125.830177,101.042992 128.618866,99.223549 131.495117,97.592102 
	C132.872559,103.496849 133.856445,103.454857 140.876022,96.931396 
	C141.302246,97.572975 141.561890,98.443581 142.108139,98.697426 
	C143.844238,99.504181 145.687119,100.081100 147.488739,100.746849 
	C148.021317,99.040726 149.236267,97.213882 148.959747,95.650902 
	C148.097458,90.776817 146.052994,86.054131 145.645767,81.174362 
	C145.276978,76.755074 146.455307,72.206657 147.737473,67.748177 
	C149.940399,73.090408 155.102814,77.522034 151.615463,84.026291 
	C151.099213,84.989159 152.206497,86.840103 152.599533,88.270035 
	C155.007431,97.030479 152.169464,106.419731 146.318604,110.619141 
	C146.318604,118.900276 146.318604,126.736633 146.318604,135.430542 
	C153.178192,133.480804 160.411179,131.424927 167.627991,129.373657 
	C169.770523,140.963913 172.060608,141.731995 184.485565,136.283844 
	C186.684830,136.822433 189.007202,138.085907 191.055908,137.737976 
	C194.555344,137.143661 195.800949,134.915527 194.128387,131.135345 
	C191.665695,125.569283 192.251755,123.169991 196.158890,117.687607 
	C201.835205,127.199051 199.942734,141.612152 190.069305,147.562195 
	C185.925598,150.059311 183.306961,149.532928 181.167892,145.644257 
	C176.588867,147.669128 172.130035,150.819931 166.326569,148.232224 
	C166.326569,156.706451 166.326569,165.133209 166.326569,174.626541 
	C175.547394,172.431885 185.506714,170.159485 195.403244,167.640503 
	C198.042831,166.968658 199.584381,165.232376 198.487045,162.006317 
	C197.040009,157.752167 199.470520,154.821228 202.310242,151.814453 
	C207.524551,168.109406 199.365219,179.117355 181.140945,181.027451 
	C177.199036,181.440613 173.275681,182.030716 169.388901,182.533493 
	C169.639023,186.350708 170.098862,189.801147 170.043457,193.243271 
	C169.916214,201.147491 165.490540,205.524277 158.467056,205.014572 
	C151.811615,204.531570 148.277237,199.623077 149.041809,191.842819 
	C149.170151,190.536850 149.522430,189.252884 149.725357,188.197403 
	C145.848938,186.849045 142.080414,185.538208 137.456726,183.929932 
	C128.652939,188.407379 126.618057,188.498108 123.000435,184.158127 
	C119.919327,185.297577 116.967674,186.945068 113.840599,187.408295 
	C109.704956,188.020935 108.299980,184.711533 107.546997,181.500488 
	C103.112679,183.427261 98.883041,185.737793 94.369392,187.122818 
	C86.274460,189.606781 81.581238,186.666687 79.773422,178.423782 
	C79.208557,175.848221 79.109802,173.164902 78.873260,170.524124 
	C78.488960,166.233780 76.422707,164.444122 72.654655,166.474609 
	C68.808670,168.547089 65.691010,171.971130 62.254498,174.803452 
	C62.504803,175.358307 62.755108,175.913162 63.005417,176.468018 
	C66.559822,177.620682 70.152321,178.668900 73.660431,179.948502 
	C80.272614,182.360306 81.609703,185.749969 77.916473,191.754456 
	C76.298889,194.384338 74.068855,196.860565 71.591843,198.699127 
	C62.201912,205.668716 51.442696,209.444229 39.925362,210.923935 
	C33.887486,211.699661 29.005527,209.032715 27.118511,203.593430 
	C22.151543,189.276215 26.545460,176.069427 31.804672,163.056793 
	C32.244793,163.130157 32.684914,163.203537 33.125034,163.276901 
	C31.946423,168.014954 30.258860,172.697479 29.734104,177.506866 
	C29.221912,182.201126 29.208172,187.179306 30.231617,191.751694 
	C31.426584,197.090393 35.617001,199.399246 41.153023,199.147339 
	C51.753471,198.664963 61.469475,195.257935 72.217010,189.781998 
	C68.540764,188.831116 66.271202,188.219528 63.989033,187.659271 
	C60.116985,186.708740 58.549084,184.434280 59.099190,180.348846 
	C60.379044,170.843826 63.927776,162.629288 72.503281,157.655380 
	C74.804329,156.320740 78.302986,155.751389 80.827354,156.423981 
	C84.123039,157.302109 84.068672,160.840485 84.072525,163.971161 
	C84.075745,166.591049 84.369225,169.331711 85.185326,171.803925 
	C86.810356,176.726639 90.830063,178.967026 95.808945,177.232681 
	C100.900574,175.459076 105.677460,172.781891 110.928032,170.344284 
	C111.621231,173.392624 111.605843,178.513290 117.548904,176.390320 
	C121.097488,175.122681 124.397728,173.159851 127.842194,171.493774 
	C131.537277,177.725037 133.138840,177.732880 141.757233,171.532272 
	C143.742249,173.093414 145.373413,175.067032 147.450119,175.833389 
	C150.003662,176.775726 151.855545,175.605789 152.978500,172.596313 
	C156.444275,163.308304 160.373505,154.194138 164.006378,144.966644 
	C164.556900,143.568298 164.488037,141.926117 164.781647,139.862701 
	C158.759308,141.398605 153.503677,142.738968 148.896378,143.913986 
	C148.548447,149.113068 148.719833,153.944366 147.721970,158.520737 
	C147.176895,161.020538 145.059662,164.416504 142.933884,165.068329 
	C138.824539,166.328415 134.407028,164.796326 132.262466,160.657623 
	C130.644867,157.535919 130.110855,153.852737 129.056473,150.290848 
	C116.859283,149.765274 116.859283,149.765274 115.286690,141.711624 
	C111.027824,143.046448 106.804718,144.370056 102.054779,145.822723 
	C101.348343,145.933960 101.171867,145.950195 100.998528,146.000488 
	C94.140991,147.160034 87.319901,148.921921 80.417480,149.339508 
	C69.772385,149.983521 65.977104,146.796463 62.796677,137.079224 
	C58.330254,141.526993 54.058876,146.936234 48.666309,150.767334 
	C44.695629,153.588272 39.357372,154.775986 34.447060,155.896027 
	C30.022034,156.905350 27.139133,154.087799 26.049612,149.943405 
	C23.923208,141.854858 25.946480,134.333374 30.029318,127.183174 
	C29.606308,130.386215 28.952969,133.578903 28.808640,136.794449 
	C28.515694,143.321167 31.602697,145.871521 37.711433,143.928925 
	C46.577229,141.109558 54.192566,135.732986 58.395870,127.705589 
	C60.531467,123.627060 59.020569,117.444313 58.554283,112.267197 
	C58.246937,108.854805 57.073891,105.464859 55.915905,102.196892 
	C53.902802,96.515694 55.199898,91.327011 58.656437,85.978691 
	C60.778664,95.279045 62.885582,104.582932 65.028801,113.878441 
	C66.331062,119.526535 67.411255,125.246315 69.094948,130.780640 
	C71.071960,137.279099 73.659821,139.560471 80.499138,138.608475 
	C90.300415,137.244186 99.932549,134.631424 109.610298,132.434464 
	C112.332352,131.816513 114.961205,130.787964 118.038025,129.820297 
	C118.420601,131.528137 118.640282,133.116516 119.139191,134.611725 
	C120.241234,137.914581 122.406776,140.053268 126.101784,139.862167 
	C129.395218,139.691818 131.862976,138.727737 133.055679,134.891342 
	C135.605942,126.688278 138.770477,118.676186 141.772079,110.339546 
	C140.922653,109.588516 139.818512,108.612289 138.732117,107.651756 
	C132.206284,113.301094 130.169128,113.631210 124.745972,110.012344 
	C114.217003,116.806992 113.981239,116.811310 108.354004,111.194290 
	C100.269562,114.063438 92.811012,117.238495 85.058701,119.318947 
	C76.658318,121.573326 72.938217,117.765816 70.820869,109.353226 
	C65.084290,86.560837 66.481583,62.964108 62.284958,40.012638 
	C61.113358,33.605133 61.236977,26.852831 66.050797,20.702660 
	C67.046265,27.246618 68.284683,33.764633 68.986870,40.339912 
	C70.470222,54.230114 71.443108,68.177322 73.074799,82.048279 
	C74.106018,90.814537 78.353317,93.497009 86.944099,91.468056 
	C94.141449,89.768188 101.477081,88.227501 107.730553,82.196632 
	C105.567368,80.678673 103.843597,79.295502 101.961243,78.179909 
	C95.699020,74.468536 89.096130,71.259895 83.146629,67.109200 
	C73.369987,60.288475 72.622574,52.023476 80.414459,42.964226 
	C87.339554,34.912750 96.652344,30.490782 106.120766,26.339075 
	C107.321960,25.812378 108.524788,25.289410 109.672737,24.788336 
	C109.356544,20.897816 107.258995,20.699516 104.604332,22.110960 
	C95.989784,26.691175 87.419640,31.354912 78.254837,35.887131 
	C77.502449,35.672218 77.327614,35.556656 77.152786,35.441097 
M142.184418,132.424316 
	C145.001282,127.444008 144.806488,125.080673 140.616119,120.613739 
	C138.465942,126.135658 136.467041,131.269119 134.468140,136.402557 
	C134.902679,136.665512 135.337219,136.928467 135.771759,137.191422 
	C137.760117,135.808044 139.748474,134.424667 142.184418,132.424316 
M160.427582,172.016068 
	C164.806290,167.319946 165.244125,163.892792 161.553635,156.748734 
	C159.229919,162.926788 157.245392,168.203049 154.758163,174.815842 
	C157.494125,173.556198 158.653259,173.022522 160.427582,172.016068 
M138.546646,156.085052 
	C140.861145,156.400146 143.175629,156.715240 145.859543,157.080627 
	C142.821762,149.103394 139.636612,147.081024 132.363708,149.163498 
	C134.378952,151.697800 136.067978,153.821854 138.546646,156.085052 
M164.377472,196.821411 
	C164.779022,196.056686 165.683456,195.135910 165.502289,194.552002 
	C164.101471,190.037659 159.296219,187.379135 153.193115,187.634171 
	C154.678421,193.036301 158.269791,195.882385 164.377472,196.821411 
z"/>
<path fill="#040404" opacity="1.000000" stroke="none" 
	d="
M182.235901,78.782242 
	C179.393387,75.953903 176.622421,73.522652 174.279007,70.732323 
	C170.610703,66.364395 169.581329,61.475750 172.289291,56.185795 
	C176.399399,59.499664 181.925339,61.915470 183.986023,66.055916 
	C187.860565,73.840927 195.778229,76.616173 200.922134,82.572731 
	C203.769287,85.869667 204.302963,89.562439 202.321274,93.174622 
	C193.974167,108.389442 181.044067,117.971718 164.325287,121.932625 
	C157.001083,123.667824 154.508820,121.075859 154.770264,113.424728 
	C154.957092,107.957436 156.041794,102.520828 156.725845,97.070526 
	C157.126633,97.122787 157.527405,97.175056 157.928192,97.227318 
	C157.928192,99.982605 157.870758,102.739388 157.942062,105.492828 
	C158.041763,109.342987 159.988297,111.715858 163.917984,110.925018 
	C176.081696,108.477104 186.607880,102.801292 195.249725,93.851875 
	C197.216827,91.814766 196.799301,89.850143 194.351028,88.099747 
	C190.304535,85.206703 186.440216,82.058838 182.235901,78.782242 
z"/>
<path fill="#070707" opacity="1.000000" stroke="none" 
	d="
M23.000828,78.003540 
	C23.037571,76.759293 23.074442,75.933647 23.157608,74.071342 
	C28.546652,77.977135 33.427433,81.514557 38.546936,85.224998 
	C40.235012,82.759323 41.931217,80.281769 43.627426,77.804222 
	C44.048222,78.043900 44.469017,78.283577 44.889812,78.523262 
	C43.589062,81.195030 42.288311,83.866798 40.926174,86.664658 
	C43.269356,88.877853 45.576130,91.006058 47.826397,93.192406 
	C52.848217,98.071625 51.770397,103.822853 49.721348,109.422905 
	C47.710987,114.917229 43.851505,118.439354 37.687225,119.200859 
	C33.089867,119.768799 30.754656,117.660965 31.079775,113.460098 
	C31.585880,106.920708 32.792130,100.435509 33.829617,93.011635 
	C29.683140,89.574394 22.590742,86.767128 23.000828,78.003540 
M35.642773,107.398087 
	C39.565144,111.802544 43.114601,108.805779 48.363632,106.921974 
	C44.119888,102.418358 40.693188,98.781807 37.266487,95.145264 
	C36.594875,95.431931 35.923267,95.718605 35.251656,96.005272 
	C35.251656,99.561531 35.251656,103.117798 35.642773,107.398087 
z"/>
<path fill="#070707" opacity="1.000000" stroke="none" 
	d="
M157.977905,69.998566 
	C156.624222,57.195312 154.839310,44.850117 154.198135,32.445805 
	C153.951813,27.679960 156.311859,22.779396 157.682678,17.121515 
	C159.948349,26.502401 161.927856,34.553883 163.807129,42.628689 
	C164.103104,43.900402 164.378769,45.449749 163.930313,46.579571 
	C159.470306,57.815990 164.518112,68.470741 165.806564,79.337082 
	C166.812317,87.819168 167.265366,96.173973 162.851334,104.058395 
	C161.223251,92.767075 159.613098,81.600052 157.977905,69.998566 
z"/>
<path fill="#060606" opacity="1.000000" stroke="none" 
	d="
M190.506378,38.089554 
	C196.976913,44.160793 196.875580,46.171997 190.394272,51.836975 
	C188.442978,49.658524 186.499908,47.489258 184.366074,45.107014 
	C181.746658,48.691036 179.834976,51.306728 177.901230,53.952602 
	C175.261261,51.430347 172.826645,49.104282 169.918015,46.325340 
	C171.894714,43.949993 174.044067,41.367172 176.560715,38.342987 
	C178.826035,40.497486 180.808243,42.382732 182.686569,44.169167 
	C184.979233,42.244526 187.571838,40.068077 190.506378,38.089554 
z"/>
<path fill="#060606" opacity="1.000000" stroke="none" 
	d="
M121.090950,49.519047 
	C122.887039,46.746822 124.542229,44.338730 126.166046,41.976280 
	C134.833267,46.794949 135.202682,49.963615 128.624496,57.699398 
	C126.161583,55.780579 123.664017,53.919411 121.295158,51.906765 
	C120.895508,51.567219 121.051033,50.574249 121.090950,49.519047 
z"/>
<path fill="#060606" opacity="1.000000" stroke="none" 
	d="
M184.823273,28.133215 
	C189.197281,33.271442 189.138382,33.723160 183.275085,41.236061 
	C180.674484,39.093136 178.067795,36.945198 175.397232,34.744637 
	C178.239563,26.359201 180.415817,24.691584 184.823273,28.133215 
z"/>
<path fill="#0A0A0A" opacity="1.000000" stroke="none" 
	d="
M128.103973,62.303509 
	C126.665070,64.984116 125.226173,67.664719 123.662750,70.577301 
	C120.572052,67.715004 118.111626,65.436394 115.242455,62.779243 
	C117.237068,60.382732 119.426308,57.752396 122.679115,53.844181 
	C124.591423,56.354805 126.169106,58.426117 127.897591,61.110195 
	C128.066925,61.916481 128.085449,62.109997 128.103973,62.303509 
z"/>
<path fill="#060606" opacity="1.000000" stroke="none" 
	d="
M138.085419,42.018703 
	C139.744522,39.953644 141.182419,38.179695 142.596313,36.435341 
	C151.017639,41.037609 151.314865,44.008053 144.226013,51.647381 
	C141.637451,49.209213 139.041290,46.763882 136.281815,44.164742 
	C136.626068,43.761200 137.245132,43.035507 138.085419,42.018703 
z"/>
<path fill="#070707" opacity="1.000000" stroke="none" 
	d="
M46.587250,45.998684 
	C46.806934,46.581661 46.875999,47.304943 47.268826,47.726631 
	C53.461494,54.374321 53.464100,55.018059 46.932220,61.705784 
	C45.747837,60.416401 44.635170,59.060455 43.368370,57.868286 
	C42.195961,56.764957 40.858597,55.836903 39.329121,54.621220 
	C41.401405,51.892570 43.361359,49.311821 45.558617,46.372009 
	C46.059849,46.016754 46.323627,46.012005 46.587250,45.998684 
z"/>
<path fill="#060606" opacity="1.000000" stroke="none" 
	d="
M128.431381,62.318504 
	C128.085449,62.109997 128.066925,61.916481 128.004913,61.434616 
	C130.137421,58.782883 132.313416,56.419495 134.485947,54.059860 
	C142.715439,58.376698 142.977356,61.612926 135.930649,68.535797 
	C133.523163,66.453789 131.140976,64.393646 128.431381,62.318504 
z"/>
<path fill="#070707" opacity="1.000000" stroke="none" 
	d="
M189.038177,193.126770 
	C196.675461,199.077728 196.748672,199.989532 190.496078,207.944397 
	C188.035461,205.610458 185.579788,203.281219 182.619049,200.472900 
	C184.548187,198.143417 186.612671,195.650513 189.038177,193.126770 
z"/>
<path fill="#070707" opacity="1.000000" stroke="none" 
	d="
M93.485458,195.110657 
	C101.584023,197.996185 102.085861,201.826630 95.731155,209.357437 
	C93.165405,206.973221 90.593292,204.583099 87.871864,202.054230 
	C89.498070,199.983276 91.330933,197.649139 93.485458,195.110657 
z"/>
<path fill="#090909" opacity="1.000000" stroke="none" 
	d="
M46.869713,45.774757 
	C46.323627,46.012005 46.059849,46.016754 45.598114,46.007240 
	C43.453346,43.567387 41.506382,41.133232 39.234104,38.292362 
	C40.386543,36.817528 42.370811,34.278168 44.328674,31.772596 
	C52.223976,36.351593 52.675564,38.762016 46.869713,45.774757 
z"/>
<path fill="#060606" opacity="1.000000" stroke="none" 
	d="
M79.872612,207.107849 
	C78.130707,205.585464 76.615700,204.339355 74.733215,202.790985 
	C76.746651,200.223831 78.754158,197.664230 80.741249,195.130661 
	C88.922173,200.005157 89.211327,202.889359 82.336235,210.041687 
	C81.583351,209.147156 80.841431,208.265656 79.872612,207.107849 
z"/>
<path fill="#070707" opacity="1.000000" stroke="none" 
	d="
M105.010712,162.031326 
	C106.707047,159.643463 108.403381,157.255600 110.060051,154.923569 
	C117.808830,159.113159 118.132095,161.781464 112.057266,168.178864 
	C109.772018,166.717255 107.484680,165.259201 105.096970,163.197876 
	C105.001289,162.406860 105.006004,162.219086 105.010712,162.031326 
z"/>
<path fill="#0B0B0B" opacity="1.000000" stroke="none" 
	d="
M104.652718,162.155991 
	C105.006004,162.219086 105.001289,162.406860 104.968933,162.875000 
	C103.128334,165.109970 101.315384,167.064575 99.595985,168.918320 
	C97.042931,167.060699 94.650642,165.320068 91.932259,163.342148 
	C93.770332,161.033066 95.658554,158.660980 98.871155,154.625137 
	C100.925850,157.525391 102.610291,159.903030 104.652718,162.155991 
z"/>
<path fill="#0C0C0C" opacity="1.000000" stroke="none" 
	d="
M101.237816,146.330170 
	C101.171867,145.950195 101.348343,145.933960 101.654984,145.992493 
	C109.447296,149.134750 109.997635,152.043564 103.984116,158.337296 
	C101.874542,156.665192 99.741013,154.974106 97.457581,153.164200 
	C98.747757,151.076447 100.112427,148.868149 101.237816,146.330170 
z"/>
<path fill="#1A1A1A" opacity="1.000000" stroke="none" 
	d="
M125.012146,196.372604 
	C124.285492,197.418747 123.377670,199.455582 122.859634,199.360840 
	C116.213089,198.145416 118.410843,202.896484 118.179565,206.015915 
	C118.119019,206.832550 117.981018,207.643448 117.827354,208.863968 
	C116.367943,204.052948 115.038719,199.671112 113.942841,196.058517 
	C117.767029,196.058517 121.205124,196.058517 124.804253,196.351898 
	C124.965286,196.645264 125.012146,196.372604 125.012146,196.372604 
z"/>
<path fill="#161616" opacity="1.000000" stroke="none" 
	d="
M125.036194,196.828796 
	C125.012146,196.372604 124.965286,196.645264 124.954437,196.687653 
	C125.378906,196.255035 125.845383,195.345200 126.244606,195.373825 
	C129.453064,195.603806 132.648849,196.010742 136.623016,196.448990 
	C135.601364,197.658096 134.942657,199.213028 133.901596,199.536209 
	C129.260712,200.976868 129.221222,200.849655 128.642288,204.565079 
	C127.474228,202.191116 126.267235,199.738068 125.036194,196.828796 
z"/>
<path fill="#050505" opacity="1.000000" stroke="none" 
	d="
M77.924210,35.982327 
	C77.587532,36.396751 77.003937,36.616627 76.420334,36.836502 
	C76.515472,36.496109 76.610603,36.155716 76.929260,35.628212 
	C77.327614,35.556656 77.502449,35.672218 77.924210,35.982327 
z"/>
<path fill="#F3F3F3" opacity="1.000000" stroke="none" 
	d="
M141.960617,132.732803 
	C139.748474,134.424667 137.760117,135.808044 135.771759,137.191422 
	C135.337219,136.928467 134.902679,136.665512 134.468140,136.402557 
	C136.467041,131.269119 138.465942,126.135658 140.616119,120.613739 
	C144.806488,125.080673 145.001282,127.444008 141.960617,132.732803 
z"/>
<path fill="#F3F3F3" opacity="1.000000" stroke="none" 
	d="
M160.119995,172.252472 
	C158.653259,173.022522 157.494125,173.556198 154.758163,174.815842 
	C157.245392,168.203049 159.229919,162.926788 161.553635,156.748734 
	C165.244125,163.892792 164.806290,167.319946 160.119995,172.252472 
z"/>
<path fill="#F2F2F2" opacity="1.000000" stroke="none" 
	d="
M138.151825,156.015488 
	C136.067978,153.821854 134.378952,151.697800 132.363708,149.163498 
	C139.636612,147.081024 142.821762,149.103394 145.859543,157.080627 
	C143.175629,156.715240 140.861145,156.400146 138.151825,156.015488 
z"/>
<path fill="#E8E8E8" opacity="1.000000" stroke="none" 
	d="
M163.997742,196.789032 
	C158.269791,195.882385 154.678421,193.036301 153.193115,187.634171 
	C159.296219,187.379135 164.101471,190.037659 165.502289,194.552002 
	C165.683456,195.135910 164.779022,196.056686 163.997742,196.789032 
z"/>
<path fill="#F2F2F2" opacity="1.000000" stroke="none" 
	d="
M35.447212,107.036072 
	C35.251656,103.117798 35.251656,99.561531 35.251656,96.005272 
	C35.923267,95.718605 36.594875,95.431931 37.266487,95.145264 
	C40.693188,98.781807 44.119888,102.418358 48.363632,106.921974 
	C43.114601,108.805779 39.565144,111.802544 35.447212,107.036072 
z"/>
</svg>